<svg width="523" height="324" viewBox="0 0 523 324" fill="none" xmlns="http://www.w3.org/2000/svg">
<path d="M0 1.00007C39.9754 0.954184 79.9508 0.918994 119.926 0.897937C124.657 0.895436 129.388 0.892847 134.119 0.890204C135.531 0.889417 135.531 0.889417 136.972 0.888614C152.175 0.879937 167.378 0.864182 182.581 0.845762C198.207 0.826989 213.833 0.815935 229.458 0.81189C239.083 0.809161 248.707 0.800573 258.331 0.784234C264.951 0.773576 271.572 0.770487 278.192 0.773065C281.998 0.774332 285.805 0.772538 289.611 0.761656C323.2 0.670659 355.385 1.88271 386 17.0001C386.915 17.4512 387.83 17.9024 388.773 18.3673C416.353 32.6828 436.996 56.0534 450 84.0001C450.643 84.0146 451.286 84.0292 451.949 84.0443C475.519 84.639 499.29 86.1197 516.801 103.82C519.672 106.987 521.741 109.845 523 114C521.228 115.772 518.758 115.516 516.376 115.848C477.178 121.442 445.759 147.072 420.552 176.239C418.673 178.371 416.679 180.349 414.625 182.313C410.498 186.383 406.871 190.726 403.25 195.246C401.074 197.909 398.818 200.46 396.5 203C393.332 206.472 390.322 210.026 387.375 213.688C384.315 217.471 381.157 220.962 377.664 224.344C375.314 226.683 373.18 229.189 371.016 231.699C368.555 234.508 366.03 237.255 363.5 240C358.245 245.711 353.045 251.446 348.188 257.5C347.105 258.738 347.105 258.738 346 260C345.34 260 344.68 260 344 260C343.753 260.572 343.505 261.145 343.25 261.734C341.807 264.35 340.118 266.148 338 268.25C337.299 268.956 336.598 269.663 335.875 270.391C334 272 334 272 332 272C332 272.66 332 273.32 332 274C330.672 275.34 330.672 275.34 328.75 276.938C325.695 279.526 322.724 282.173 319.806 284.915C292.06 310.875 259.137 323.564 220.953 323.206C218.907 323.187 216.861 323.185 214.814 323.186C209.08 323.16 203.647 323.075 198 322C199.301 318.097 201.051 317.259 204.375 314.875C205.475 314.074 206.574 313.27 207.672 312.465C208.229 312.056 208.787 311.647 209.361 311.226C212.789 308.661 216.061 305.904 219.359 303.176C221.843 301.13 224.352 299.123 226.875 297.125C235.795 290.009 244.461 282.567 253 275C253.696 274.397 254.392 273.793 255.109 273.172C266.502 263.155 277.596 252.49 286.965 240.539C289.202 237.748 291.575 235.129 294 232.5C298.114 228.03 301.971 223.41 305.785 218.684C308.666 215.193 311.709 211.867 314.758 208.523C317.045 205.949 319.215 203.307 321.375 200.625C325.537 195.481 329.946 190.623 334.441 185.773C337.083 182.91 339.649 179.992 342.199 177.047C344.388 174.559 346.632 172.127 348.875 169.688C352.145 166.107 355.28 162.471 358.312 158.688C362.401 153.619 366.754 148.856 371.22 144.122C374.004 141.168 376.723 138.181 379.371 135.106C383.198 130.703 387.29 126.599 391.438 122.5C392.169 121.773 392.901 121.046 393.654 120.297C395.434 118.529 397.216 116.763 399 115C393.33 96.4894 379.238 80.2364 362.402 70.9376C353.084 66.1534 343.121 63.5173 333 61.0001C332.358 60.8182 331.716 60.6363 331.054 60.449C328.755 59.9466 326.681 59.874 324.327 59.8726C323.387 59.8696 322.447 59.8666 321.478 59.8635C319.932 59.8661 319.932 59.8661 318.356 59.8688C316.711 59.8656 316.711 59.8656 315.033 59.8624C311.344 59.8563 307.656 59.8574 303.967 59.8582C301.327 59.8552 298.688 59.8517 296.048 59.8477C290.356 59.8396 284.664 59.8346 278.972 59.8314C269.966 59.8259 260.96 59.809 251.954 59.7901C248.871 59.7837 245.788 59.7774 242.705 59.7711C241.935 59.7695 241.164 59.7679 240.371 59.7663C231.599 59.7483 222.827 59.7321 214.056 59.7171C212.853 59.715 212.853 59.715 211.626 59.7129C198.65 59.691 185.675 59.6803 172.699 59.6727C159.366 59.6646 146.033 59.6413 132.699 59.6048C124.483 59.5828 116.266 59.5731 108.05 59.5793C102.41 59.5825 96.771 59.571 91.1316 59.5484C87.8834 59.5358 84.6355 59.5317 81.3872 59.5408C63.8652 59.5851 50.1957 59.3966 36 48.0001C35.1737 47.3942 34.3474 46.7883 33.4961 46.1641C30.6532 43.6994 28.6488 40.9672 26.5625 37.8751C21.4332 30.4835 15.9443 23.403 10.3945 16.3243C9.5701 15.2712 9.5701 15.2712 8.729 14.1968C7.49902 12.6341 6.26082 11.0778 5.01709 9.52595C4.37594 8.71948 3.73479 7.91301 3.07422 7.0821C2.1919 5.98152 2.1919 5.98152 1.29175 4.85871C0 3.00007 0 3.00007 0 1.00007Z" fill="#F8F9FB"/>
<path d="M0 1.00007C39.9754 0.954184 79.9508 0.918994 119.926 0.897937C124.657 0.895436 129.388 0.892847 134.119 0.890204C135.531 0.889417 135.531 0.889417 136.972 0.888614C152.175 0.879937 167.378 0.864182 182.581 0.845762C198.207 0.826989 213.833 0.815935 229.458 0.81189C239.083 0.809161 248.707 0.800573 258.331 0.784234C264.951 0.773576 271.572 0.770487 278.192 0.773065C281.998 0.774332 285.805 0.772538 289.611 0.761656C323.2 0.670659 355.385 1.88271 386 17.0001C386.915 17.4512 387.83 17.9024 388.773 18.3673C416.353 32.6828 436.996 56.0534 450 84.0001C450.643 84.0146 451.286 84.0292 451.949 84.0443C475.519 84.639 499.29 86.1197 516.801 103.82C519.672 106.987 521.741 109.845 523 114C521.228 115.772 518.758 115.516 516.376 115.848C477.178 121.442 445.759 147.072 420.552 176.239C418.673 178.371 416.679 180.349 414.625 182.313C410.498 186.383 406.871 190.726 403.25 195.246C401.074 197.909 398.818 200.46 396.5 203C393.332 206.472 390.322 210.026 387.375 213.688C384.315 217.471 381.157 220.962 377.664 224.344C375.314 226.683 373.18 229.189 371.016 231.699C368.555 234.508 366.03 237.255 363.5 240C358.245 245.711 353.045 251.446 348.188 257.5C347.105 258.738 347.105 258.738 346 260C345.34 260 344.68 260 344 260C343.753 260.572 343.505 261.145 343.25 261.734C341.807 264.35 340.118 266.148 338 268.25C337.299 268.956 336.598 269.663 335.875 270.391C334 272 334 272 332 272C332 272.66 332 273.32 332 274C330.672 275.34 330.672 275.34 328.75 276.938C325.695 279.526 322.724 282.173 319.806 284.915C292.06 310.875 259.137 323.564 220.953 323.206C218.907 323.187 216.861 323.185 214.814 323.186C209.08 323.16 203.647 323.075 198 322C199.301 318.097 201.051 317.259 204.375 314.875C205.475 314.074 206.574 313.27 207.672 312.465C208.229 312.056 208.787 311.647 209.361 311.226C212.789 308.661 216.061 305.904 219.359 303.176C221.843 301.13 224.352 299.123 226.875 297.125C235.795 290.009 244.461 282.567 253 275C253.696 274.397 254.392 273.793 255.109 273.172C266.502 263.155 277.596 252.49 286.965 240.539C289.202 237.748 291.575 235.129 294 232.5C298.114 228.03 301.971 223.41 305.785 218.684C308.666 215.193 311.709 211.867 314.758 208.523C317.045 205.949 319.215 203.307 321.375 200.625C325.537 195.481 329.946 190.623 334.441 185.773C337.083 182.91 339.649 179.992 342.199 177.047C344.388 174.559 346.632 172.127 348.875 169.688C352.145 166.107 355.28 162.471 358.312 158.688C362.401 153.619 366.754 148.856 371.22 144.122C374.004 141.168 376.723 138.181 379.371 135.106C383.198 130.703 387.29 126.599 391.438 122.5C392.169 121.773 392.901 121.046 393.654 120.297C395.434 118.529 397.216 116.763 399 115C393.33 96.4894 379.238 80.2364 362.402 70.9376C353.084 66.1534 343.121 63.5173 333 61.0001C332.358 60.8182 331.716 60.6363 331.054 60.449C328.755 59.9466 326.681 59.874 324.327 59.8726C323.387 59.8696 322.447 59.8666 321.478 59.8635C319.932 59.8661 319.932 59.8661 318.356 59.8688C316.711 59.8656 316.711 59.8656 315.033 59.8624C311.344 59.8563 307.656 59.8574 303.967 59.8582C301.327 59.8552 298.688 59.8517 296.048 59.8477C290.356 59.8396 284.664 59.8346 278.972 59.8314C269.966 59.8259 260.96 59.809 251.954 59.7901C248.871 59.7837 245.788 59.7774 242.705 59.7711C241.935 59.7695 241.164 59.7679 240.371 59.7663C231.599 59.7483 222.827 59.7321 214.056 59.7171C212.853 59.715 212.853 59.715 211.626 59.7129C198.65 59.691 185.675 59.6803 172.699 59.6727C159.366 59.6646 146.033 59.6413 132.699 59.6048C124.483 59.5828 116.266 59.5731 108.05 59.5793C102.41 59.5825 96.771 59.571 91.1316 59.5484C87.8834 59.5358 84.6355 59.5317 81.3872 59.5408C63.8652 59.5851 50.1957 59.3966 36 48.0001C35.1737 47.3942 34.3474 46.7883 33.4961 46.1641C30.6532 43.6994 28.6488 40.9672 26.5625 37.8751C21.4332 30.4835 15.9443 23.403 10.3945 16.3243C9.5701 15.2712 9.5701 15.2712 8.729 14.1968C7.49902 12.6341 6.26082 11.0778 5.01709 9.52595C4.37594 8.71948 3.73479 7.91301 3.07422 7.0821C2.1919 5.98152 2.1919 5.98152 1.29175 4.85871C0 3.00007 0 3.00007 0 1.00007Z" fill="#F8F9FB"/>
<path d="M58 101C135.55 101 213.1 101 293 101C291.876 106.621 291.876 106.621 289.375 109.164C288.569 110.003 288.569 110.003 287.748 110.858C286.883 111.733 286.883 111.733 286 112.625C284.802 113.873 283.607 115.123 282.414 116.375C281.828 116.99 281.242 117.605 280.638 118.238C278.433 120.61 276.397 123.096 274.375 125.625C270.317 130.69 265.99 135.445 261.582 140.203C257.487 144.639 253.471 149.12 249.75 153.875C247.637 156.441 246.031 157.889 242.66 158.252C241.732 158.252 240.803 158.253 239.847 158.254C238.78 158.26 237.714 158.265 236.615 158.271C235.444 158.267 234.274 158.263 233.068 158.259C231.219 158.264 231.219 158.264 229.332 158.269C225.947 158.277 222.563 158.275 219.178 158.269C215.63 158.264 212.082 158.268 208.534 158.271C202.568 158.275 196.602 158.27 190.635 158.261C183.757 158.25 176.879 158.253 170.001 158.264C164.086 158.274 158.17 158.275 152.255 158.27C148.727 158.266 145.199 158.266 141.671 158.273C137.726 158.279 133.782 158.27 129.838 158.259C128.681 158.263 127.525 158.267 126.334 158.271C112.671 158.2 100.37 155.584 90.25 145.75C87 142.341 87 142.341 87 140C86.34 140 85.68 140 85 140C83.6943 138.52 83.6943 138.52 82.2344 136.48C81.7026 135.747 81.1709 135.014 80.623 134.259C80.0874 133.514 79.5518 132.768 79 132C78.05 130.723 77.097 129.448 76.1406 128.176C75.6692 127.545 75.1977 126.915 74.7119 126.266C68.8705 118.461 62.9665 110.709 57 103C57.33 102.34 57.66 101.68 58 101Z" fill="#F7F8FA"/>
<path d="M113 200C146.33 200 179.66 200 214 200C213.037 203.852 212.703 204.67 210.188 207.375C206.831 211.074 203.555 214.826 200.312 218.625C199.272 219.84 198.232 221.055 197.191 222.27C194.554 225.351 191.919 228.435 189.285 231.52C187.777 233.281 186.262 235.037 184.746 236.793C183.057 238.752 181.413 240.726 179.785 242.738C175.55 247.862 171.628 251.505 165 253C158.222 253.59 154.259 251.886 148.996 247.752C145.858 244.998 143.309 241.913 140.75 238.625C140.2 237.934 139.65 237.243 139.083 236.531C134.704 230.994 130.461 225.355 126.266 219.679C122.545 214.66 118.632 209.866 114.547 205.137C113 203 113 203 113 200Z" fill="#F8F9FB"/>
</svg>
