<svg width="996" height="171" viewBox="0 0 996 171" fill="none" xmlns="http://www.w3.org/2000/svg">
<path d="M254.32 136L242.28 38H269.58L279.8 122.84H265.38L310.18 38H335.8L345.18 122.84H331.6L376.12 38H403.56L352.18 136H322.5L313.82 63.9H322.22L284.14 136H254.32ZM431.272 75.94H476.772L472.712 96.66H427.212L431.272 75.94ZM425.532 114.58H476.912L472.432 136H393.892L413.492 38H490.212L485.872 59.42H436.452L425.532 114.58ZM487.955 136L507.555 38H557.115C568.222 38 576.668 40.0067 582.455 44.02C588.242 47.94 591.135 53.5867 591.135 60.96C591.135 67.0267 589.455 72.16 586.095 76.36C582.735 80.56 578.208 83.78 572.515 86.02C566.822 88.1667 560.428 89.24 553.335 89.24L557.255 82.52C566.308 82.52 573.495 84.48 578.815 88.4C584.135 92.32 586.795 97.8267 586.795 104.92C586.795 112.013 584.788 117.847 580.775 122.42C576.855 126.993 571.488 130.4 564.675 132.64C557.955 134.88 550.348 136 541.855 136H487.955ZM519.315 115.98H543.395C548.248 115.98 552.075 115 554.875 113.04C557.768 111.08 559.215 108.187 559.215 104.36C559.215 101.467 558.142 99.3667 555.995 98.06C553.848 96.7533 551.095 96.1 547.735 96.1H520.995L524.775 76.92H547.035C550.302 76.92 553.055 76.5 555.295 75.66C557.628 74.82 559.355 73.56 560.475 71.88C561.595 70.2 562.155 68.1467 562.155 65.72C562.155 63.0133 561.128 61.0533 559.075 59.84C557.022 58.6267 554.175 58.02 550.535 58.02H530.935L519.315 115.98ZM595.553 136L615.153 38H657.713C667.979 38 676.753 39.68 684.033 43.04C691.406 46.4 697.053 51.16 700.973 57.32C704.893 63.3867 706.853 70.6667 706.853 79.16C706.853 87.84 705.359 95.68 702.373 102.68C699.386 109.587 695.186 115.56 689.773 120.6C684.359 125.547 677.919 129.373 670.452 132.08C662.986 134.693 654.726 136 645.673 136H595.553ZM627.753 113.88H646.513C653.513 113.88 659.393 112.433 664.153 109.54C668.913 106.647 672.553 102.727 675.073 97.78C677.593 92.74 678.853 87.0933 678.853 80.84C678.853 76.4533 677.919 72.72 676.053 69.64C674.279 66.56 671.573 64.2267 667.933 62.64C664.386 60.96 659.953 60.12 654.633 60.12H638.393L627.753 113.88ZM711.217 136L730.817 38H772.677C785.277 38 794.983 40.7533 801.797 46.26C808.703 51.7667 812.157 59.42 812.157 69.22C812.157 77.4333 810.15 84.62 806.137 90.78C802.217 96.8467 796.617 101.56 789.337 104.92C782.057 108.28 773.47 109.96 763.577 109.96H731.797L746.497 98.06L738.937 136H711.217ZM772.677 136L752.657 100.3H781.357L801.657 136H772.677ZM745.797 101.28L736.137 88.54H764.837C770.997 88.54 775.757 87.0933 779.117 84.2C782.477 81.3067 784.157 77.2 784.157 71.88C784.157 67.7733 782.803 64.74 780.097 62.78C777.39 60.82 773.61 59.84 768.757 59.84H742.017L756.857 46.68L745.797 101.28ZM814.849 136L834.449 38H862.169L842.569 136H814.849ZM862.291 136L881.891 38H923.331C936.024 38 945.824 40.7533 952.731 46.26C959.637 51.7667 963.091 59.5133 963.091 69.5C963.091 77.7133 961.131 84.9 957.211 91.06C953.291 97.22 947.691 101.98 940.411 105.34C933.131 108.7 924.544 110.38 914.651 110.38H882.871L897.571 98.06L890.011 136H862.291ZM896.871 101.28L887.211 88.54H915.911C921.977 88.54 926.691 87.0933 930.051 84.2C933.411 81.3067 935.091 77.2 935.091 71.88C935.091 67.7733 933.737 64.74 931.031 62.78C928.324 60.82 924.544 59.84 919.691 59.84H893.091L907.791 46.68L896.871 101.28Z" fill="white"/>
<path d="M0.328125 8.78518C16.9976 8.76605 33.667 8.75138 50.3364 8.74259C52.3091 8.74155 54.2818 8.74047 56.2546 8.73937C56.8436 8.73904 56.8436 8.73904 57.4445 8.73871C63.784 8.73509 70.1234 8.72852 76.4628 8.72084C82.9787 8.71301 89.4946 8.7084 96.0105 8.70671C100.024 8.70558 104.037 8.70199 108.05 8.69518C110.811 8.69074 113.571 8.68945 116.332 8.69052C117.919 8.69105 119.506 8.6903 121.094 8.68577C135.1 8.64782 148.521 9.15324 161.287 15.4571C161.669 15.6452 162.05 15.8333 162.444 16.0272C173.944 21.9966 182.552 31.742 187.975 43.3955C188.243 43.4016 188.511 43.4077 188.787 43.414C198.616 43.6619 208.528 44.2794 215.83 51.6604C217.027 52.9808 217.89 54.1725 218.415 55.9053C217.676 56.6442 216.646 56.5373 215.653 56.6761C199.308 59.0085 186.206 69.6961 175.695 81.8583C174.912 82.7475 174.08 83.5723 173.224 84.3911C171.503 86.0885 169.99 87.8993 168.48 89.7843C167.573 90.8948 166.632 91.9586 165.666 93.0176C164.344 94.4654 163.089 95.9474 161.86 97.4742C160.584 99.0517 159.268 100.508 157.811 101.918C156.831 102.893 155.941 103.938 155.039 104.985C154.013 106.156 152.96 107.301 151.905 108.446C149.714 110.828 147.545 113.219 145.52 115.744C145.068 116.26 145.068 116.26 144.607 116.786C144.332 116.786 144.057 116.786 143.773 116.786C143.67 117.025 143.567 117.263 143.461 117.509C142.859 118.6 142.155 119.35 141.271 120.226C140.979 120.521 140.687 120.815 140.385 121.119C139.604 121.79 139.604 121.79 138.77 121.79C138.77 122.065 138.77 122.34 138.77 122.624C138.216 123.183 138.216 123.183 137.414 123.849C136.14 124.928 134.902 126.032 133.685 127.176C122.115 138 108.386 143.292 92.464 143.142C91.6106 143.135 90.7575 143.134 89.9041 143.134C87.513 143.123 85.2472 143.088 82.8926 142.64C83.4351 141.012 84.1648 140.663 85.5509 139.669C86.0098 139.334 86.468 138.999 86.9257 138.664C87.1582 138.493 87.3906 138.323 87.6302 138.147C89.0596 137.078 90.424 135.928 91.7993 134.79C92.8348 133.937 93.8814 133.1 94.9332 132.267C98.6528 129.3 102.266 126.196 105.827 123.041C106.117 122.789 106.408 122.538 106.707 122.279C111.458 118.102 116.083 113.654 119.99 108.671C120.923 107.507 121.912 106.415 122.924 105.319C124.639 103.455 126.248 101.528 127.838 99.5575C129.039 98.102 130.308 96.7152 131.58 95.3208C132.533 94.2474 133.438 93.1457 134.339 92.0272C136.074 89.8822 137.913 87.8564 139.788 85.8343C140.889 84.6401 141.959 83.4235 143.023 82.1954C143.935 81.158 144.871 80.1436 145.806 79.1265C147.17 77.6337 148.477 76.1173 149.742 74.5396C151.446 72.4262 153.262 70.4398 155.124 68.4659C156.285 67.2343 157.418 65.9887 158.523 64.7061C160.119 62.8704 161.825 61.1588 163.555 59.4497C163.86 59.1466 164.165 58.8434 164.479 58.531C165.221 57.7938 165.964 57.0576 166.708 56.3223C164.343 48.6035 158.467 41.8261 151.447 37.9486C147.561 35.9536 143.407 34.8544 139.187 33.8047C138.919 33.7289 138.651 33.653 138.375 33.5749C137.417 33.3654 136.551 33.3352 135.57 33.3346C135.178 33.3333 134.786 33.3321 134.382 33.3308C133.737 33.3319 133.737 33.3319 133.08 33.333C132.394 33.3316 132.394 33.3316 131.694 33.3303C130.156 33.3278 128.618 33.3282 127.08 33.3286C125.979 33.3273 124.879 33.3259 123.778 33.3242C121.404 33.3208 119.031 33.3187 116.657 33.3174C112.902 33.3151 109.146 33.308 105.391 33.3002C104.105 33.2975 102.82 33.2949 101.534 33.2922C101.213 33.2916 100.892 33.2909 100.561 33.2902C96.9031 33.2828 93.2454 33.276 89.5878 33.2697C89.0863 33.2689 89.0863 33.2689 88.5746 33.268C83.1638 33.2589 77.753 33.2544 72.3423 33.2512C66.7824 33.2479 61.2226 33.2381 55.6627 33.2229C52.2365 33.2137 48.8103 33.2097 45.384 33.2123C43.0324 33.2136 40.6809 33.2088 38.3293 33.1994C36.9748 33.1941 35.6205 33.1924 34.266 33.1962C26.9594 33.2147 21.2593 33.1361 15.3398 28.3838C14.9953 28.1312 14.6507 27.8785 14.2957 27.6182C13.1103 26.5905 12.2745 25.4512 11.4045 24.1618C9.2656 21.0795 6.97676 18.127 4.66256 15.1753C4.31878 14.7361 4.31878 14.7361 3.96805 14.2881C3.45516 13.6365 2.93884 12.9875 2.42021 12.3404C2.15286 12.0041 1.88551 11.6678 1.61005 11.3213C1.24213 10.8624 1.24213 10.8624 0.866774 10.3942C0.328125 9.61917 0.328125 9.61917 0.328125 8.78518Z" fill="#F8F9FB"/>
<path d="M0.328125 8.78518C16.9976 8.76605 33.667 8.75138 50.3364 8.74259C52.3091 8.74155 54.2818 8.74047 56.2546 8.73937C56.8436 8.73904 56.8436 8.73904 57.4445 8.73871C63.784 8.73509 70.1234 8.72852 76.4628 8.72084C82.9787 8.71301 89.4946 8.7084 96.0105 8.70671C100.024 8.70558 104.037 8.70199 108.05 8.69518C110.811 8.69074 113.571 8.68945 116.332 8.69052C117.919 8.69105 119.506 8.6903 121.094 8.68577C135.1 8.64782 148.521 9.15324 161.287 15.4571C161.669 15.6452 162.05 15.8333 162.444 16.0272C173.944 21.9966 182.552 31.742 187.975 43.3955C188.243 43.4016 188.511 43.4077 188.787 43.414C198.616 43.6619 208.528 44.2794 215.83 51.6604C217.027 52.9808 217.89 54.1725 218.415 55.9053C217.676 56.6442 216.646 56.5373 215.653 56.6761C199.308 59.0085 186.206 69.6961 175.695 81.8583C174.912 82.7475 174.08 83.5723 173.224 84.3911C171.503 86.0885 169.99 87.8993 168.48 89.7843C167.573 90.8948 166.632 91.9586 165.666 93.0176C164.344 94.4654 163.089 95.9474 161.86 97.4742C160.584 99.0517 159.268 100.508 157.811 101.918C156.831 102.893 155.941 103.938 155.039 104.985C154.013 106.156 152.96 107.301 151.905 108.446C149.714 110.828 147.545 113.219 145.52 115.744C145.068 116.26 145.068 116.26 144.607 116.786C144.332 116.786 144.057 116.786 143.773 116.786C143.67 117.025 143.567 117.263 143.461 117.509C142.859 118.6 142.155 119.35 141.271 120.226C140.979 120.521 140.687 120.815 140.385 121.119C139.604 121.79 139.604 121.79 138.77 121.79C138.77 122.065 138.77 122.34 138.77 122.624C138.216 123.183 138.216 123.183 137.414 123.849C136.14 124.928 134.902 126.032 133.685 127.176C122.115 138 108.386 143.292 92.464 143.142C91.6106 143.135 90.7575 143.134 89.9041 143.134C87.513 143.123 85.2472 143.088 82.8926 142.64C83.4351 141.012 84.1648 140.663 85.5509 139.669C86.0098 139.334 86.468 138.999 86.9257 138.664C87.1582 138.493 87.3906 138.323 87.6302 138.147C89.0596 137.078 90.424 135.928 91.7993 134.79C92.8348 133.937 93.8814 133.1 94.9332 132.267C98.6528 129.3 102.266 126.196 105.827 123.041C106.117 122.789 106.408 122.538 106.707 122.279C111.458 118.102 116.083 113.654 119.99 108.671C120.923 107.507 121.912 106.415 122.924 105.319C124.639 103.455 126.248 101.528 127.838 99.5575C129.039 98.102 130.308 96.7152 131.58 95.3208C132.533 94.2474 133.438 93.1457 134.339 92.0272C136.074 89.8822 137.913 87.8564 139.788 85.8343C140.889 84.6401 141.959 83.4235 143.023 82.1954C143.935 81.158 144.871 80.1436 145.806 79.1265C147.17 77.6337 148.477 76.1173 149.742 74.5396C151.446 72.4262 153.262 70.4398 155.124 68.4659C156.285 67.2343 157.418 65.9887 158.523 64.7061C160.119 62.8704 161.825 61.1588 163.555 59.4497C163.86 59.1466 164.165 58.8434 164.479 58.531C165.221 57.7938 165.964 57.0576 166.708 56.3223C164.343 48.6035 158.467 41.8261 151.447 37.9486C147.561 35.9536 143.407 34.8544 139.187 33.8047C138.919 33.7289 138.651 33.653 138.375 33.5749C137.417 33.3654 136.551 33.3352 135.57 33.3346C135.178 33.3333 134.786 33.3321 134.382 33.3308C133.737 33.3319 133.737 33.3319 133.08 33.333C132.394 33.3316 132.394 33.3316 131.694 33.3303C130.156 33.3278 128.618 33.3282 127.08 33.3286C125.979 33.3273 124.879 33.3259 123.778 33.3242C121.404 33.3208 119.031 33.3187 116.657 33.3174C112.902 33.3151 109.146 33.308 105.391 33.3002C104.105 33.2975 102.82 33.2949 101.534 33.2922C101.213 33.2916 100.892 33.2909 100.561 33.2902C96.9031 33.2828 93.2454 33.276 89.5878 33.2697C89.0863 33.2689 89.0863 33.2689 88.5746 33.268C83.1638 33.2589 77.753 33.2544 72.3423 33.2512C66.7824 33.2479 61.2226 33.2381 55.6627 33.2229C52.2365 33.2137 48.8103 33.2097 45.384 33.2123C43.0324 33.2136 40.6809 33.2088 38.3293 33.1994C36.9748 33.1941 35.6205 33.1924 34.266 33.1962C26.9594 33.2147 21.2593 33.1361 15.3398 28.3838C14.9953 28.1312 14.6507 27.8785 14.2957 27.6182C13.1103 26.5905 12.2745 25.4512 11.4045 24.1618C9.2656 21.0795 6.97676 18.127 4.66256 15.1753C4.31878 14.7361 4.31878 14.7361 3.96805 14.2881C3.45516 13.6365 2.93884 12.9875 2.42021 12.3404C2.15286 12.0041 1.88551 11.6678 1.61005 11.3213C1.24213 10.8624 1.24213 10.8624 0.866774 10.3942C0.328125 9.61917 0.328125 9.61917 0.328125 8.78518Z" fill="#F8F9FB"/>
<path d="M24.5146 50.4844C56.8524 50.4844 89.1901 50.4844 122.508 50.4844C122.039 52.8281 122.039 52.8281 120.996 53.8887C120.66 54.2384 120.66 54.2384 120.318 54.595C119.957 54.9598 119.957 54.9598 119.589 55.3319C119.089 55.8521 118.591 56.3734 118.094 56.8956C117.849 57.152 117.605 57.4084 117.353 57.6726C116.433 58.6617 115.584 59.6983 114.741 60.7528C113.049 62.865 111.245 64.8478 109.407 66.8318C107.699 68.6814 106.025 70.5501 104.473 72.5328C103.592 73.6029 102.922 74.2067 101.516 74.3579C101.129 74.3582 100.742 74.3585 100.343 74.3588C99.8987 74.3612 99.4539 74.3635 98.9956 74.366C98.5076 74.3643 98.0195 74.3626 97.5167 74.3608C96.7456 74.363 96.7456 74.363 95.9589 74.3653C94.5474 74.3683 93.1361 74.3676 91.7247 74.365C90.2452 74.3628 88.7657 74.3648 87.2861 74.3661C84.7983 74.3676 82.3105 74.3656 79.8226 74.3617C76.9544 74.3571 74.0863 74.3586 71.2181 74.3632C68.7515 74.367 66.2849 74.3675 63.8183 74.3653C62.3471 74.364 60.8759 74.3638 59.4047 74.3666C57.7599 74.3695 56.1152 74.3655 54.4704 74.3608C53.9882 74.3625 53.5061 74.3642 53.0094 74.366C47.3118 74.3364 42.1824 73.2453 37.9626 69.1448C36.6074 67.7234 36.6074 67.7234 36.6074 66.7471C36.3322 66.7471 36.057 66.7471 35.7734 66.7471C35.229 66.13 35.229 66.13 34.6202 65.2795C34.3985 64.9738 34.1767 64.6681 33.9483 64.3532C33.7249 64.0423 33.5016 63.7314 33.2715 63.4111C32.8753 62.8786 32.4779 62.347 32.0791 61.8165C31.8825 61.5536 31.6859 61.2908 31.4834 61.0199C29.0476 57.7657 26.5856 54.5329 24.0977 51.3184C24.2353 51.0431 24.3729 50.7679 24.5146 50.4844Z" fill="#F7F8FA"/>
<path d="M47.4492 91.7666C61.3476 91.7666 75.2459 91.7666 89.5654 91.7666C89.1639 93.3729 89.0246 93.7139 87.9756 94.8419C86.5761 96.3843 85.2099 97.9491 83.8578 99.5331C83.4241 100.04 82.9902 100.546 82.5564 101.053C81.4567 102.338 80.358 103.624 79.2595 104.91C78.6305 105.645 77.9988 106.377 77.3668 107.109C76.6626 107.926 75.9767 108.749 75.2981 109.588C73.5323 111.725 71.8968 113.244 69.1328 113.867C66.3066 114.113 64.6537 113.403 62.4594 111.679C61.1509 110.53 60.0877 109.244 59.0208 107.873C58.7914 107.585 58.562 107.296 58.3256 107C56.4997 104.691 54.7304 102.34 52.9809 99.9728C51.4296 97.8796 49.7977 95.8809 48.0943 93.9086C47.4492 93.0176 47.4492 93.0176 47.4492 91.7666Z" fill="#F8F9FB"/>
</svg>
